<?xml version="1.0" standalone="no"?>
<!DOCTYPE svg PUBLIC "-//W3C//DTD SVG 20010904//EN"
 "http://www.w3.org/TR/2001/REC-SVG-20010904/DTD/svg10.dtd">
<svg version="1.0" xmlns="http://www.w3.org/2000/svg"
 width="664.000000pt" height="664.000000pt" viewBox="0 0 664.000000 664.000000"
 preserveAspectRatio="xMidYMid meet">
<metadata>
Created by potrace 1.11, written by Peter Selinger 2001-2013
</metadata>
<g transform="translate(0.000000,664.000000) scale(0.100000,-0.100000)"
fill="#000000" stroke="none">
<path d="M6072 6351 c-27 -7 -32 -16 -102 -164 -28 -60 -68 -138 -90 -174 -22
-36 -40 -67 -40 -69 0 -2 -28 -43 -62 -91 -80 -114 -166 -218 -250 -303 -20
-21 -34 -41 -30 -45 4 -4 2 -5 -4 -3 -6 2 -38 -22 -70 -52 -84 -79 -207 -172
-374 -285 -80 -54 -149 -103 -155 -110 -5 -6 -17 -14 -25 -17 -31 -11 -218
-164 -300 -244 l-85 -83 0 -746 c0 -410 -3 -745 -6 -745 -3 0 -11 10 -17 23
-12 24 -18 33 -132 217 -41 67 -82 133 -91 148 -9 15 -41 66 -70 114 -30 48
-78 126 -108 175 -30 48 -69 111 -86 138 -42 66 -207 331 -220 353 -39 69
-160 258 -167 260 -4 2 -8 9 -8 15 0 7 -16 37 -37 67 -42 64 -59 90 -143 225
-106 169 -160 252 -304 470 -222 335 -332 430 -570 490 -51 13 -112 26 -134
29 -23 3 -61 9 -84 12 -227 32 -973 38 -1178 9 -153 -21 -218 -38 -316 -85
-184 -88 -262 -235 -256 -475 2 -38 4 -1157 5 -2485 2 -1328 6 -2458 11 -2510
8 -110 20 -130 76 -130 28 0 39 5 48 23 38 76 120 254 122 262 1 6 8 14 16 18
8 4 14 12 14 17 0 14 74 134 121 195 21 28 39 54 39 57 0 6 14 23 99 119 22
25 40 48 38 50 -1 2 -1 4 1 3 1 -1 42 38 90 85 48 48 109 104 136 126 28 22
57 47 66 55 9 8 24 20 33 25 8 6 60 42 114 81 54 39 141 99 193 135 52 35 100
68 106 74 6 5 22 17 34 25 27 19 115 87 155 120 16 14 62 58 102 97 l73 73 0
540 c0 301 4 539 9 536 8 -5 726 -1194 746 -1235 5 -12 13 -21 17 -21 5 0 8
-4 8 -9 0 -14 399 -663 539 -876 57 -88 176 -252 207 -285 84 -92 137 -140
154 -140 6 0 10 -3 10 -8 0 -19 140 -76 226 -91 33 -6 70 -13 84 -16 61 -12
281 -19 610 -19 410 -1 551 7 740 40 117 21 240 54 240 66 0 5 4 6 10 3 12 -7
81 28 136 69 51 38 108 113 141 185 30 66 32 74 41 187 9 115 7 5177 -2 5299
-11 153 -15 175 -28 188 -19 19 -40 24 -66 18z"/>
</g>
</svg>
